<svg width="20" height="20" viewBox="0 0 20 20" fill="none" xmlns="http://www.w3.org/2000/svg">
<path fill-rule="evenodd" clip-rule="evenodd" d="M9.78237 1.6666C14.2574 1.6666 17.8974 5.3066 17.8974 9.7816C17.8974 11.8929 17.0871 13.8185 15.7612 15.2637L18.3702 17.8672C18.6144 18.1113 18.6152 18.5063 18.371 18.7505C18.2494 18.8738 18.0885 18.9347 17.9285 18.9347C17.7694 18.9347 17.6094 18.8738 17.4869 18.7522L14.8464 16.1191C13.4574 17.2315 11.6963 17.8974 9.78237 17.8974C5.30737 17.8974 1.66653 14.2566 1.66653 9.7816C1.66653 5.3066 5.30737 1.6666 9.78237 1.6666ZM9.78237 2.9166C5.99653 2.9166 2.91653 5.99576 2.91653 9.7816C2.91653 13.5674 5.99653 16.6474 9.78237 16.6474C13.5674 16.6474 16.6474 13.5674 16.6474 9.7816C16.6474 5.99576 13.5674 2.9166 9.78237 2.9166Z" fill="#9393C1"/>
</svg>
